# xmcd
#
# Track frame offsets:
# 150
# 14972
# 26975
# 41417
# 54077
# 71317
# 86400
# 102107
# 119255
# 131030
# 144850
# 157810
#
# Disc length: 2241 seconds
#
# Revision: 7
# Processed by: cddbd v1.5.2PL0 Copyright (c) Steve Scherf et al.
# Submitted via: Axialis_AX_CDPlayer 2.6
#
DISCID=9508bf0c
DTITLE=Johnny Cash - Silver
DYEAR=1979
DGENRE=Country
TTITLE0=The L&N don't stop here anymore
TTITLE1=Lonesome to the bone
TTITLE2=Bull rider
TTITLE3=I'll say it's true (with George Jones)
TTITLE4=(Ghost) Riders in the sky
TTITLE5=Cocaine blues
TTITLE6=Muddy waters
TTITLE7=West Canterbury Subdivision blues
TTITLE8=Lately I've been leanin' toward the blues
TTITLE9=I'm gonna sit on the porch and pick on my old guitar
TTITLE10=I still miss someone (with George Jones)
TTITLE11=I got stripes (with George Jones)
EXTD=
EXTT0=
EXTT1=
EXTT2=
EXTT3=
EXTT4=
EXTT5=
EXTT6=
EXTT7=
EXTT8=
EXTT9=
EXTT10=unreleased
EXTT11=unreleased
PLAYORDER=
